<svg width="40" height="40" viewBox="0 0 40 40" fill="none" xmlns="http://www.w3.org/2000/svg">
<path fill-rule="evenodd" clip-rule="evenodd" d="M17.9688 1.71687C12.6785 2.1775 7.98704 4.8282 4.82962 9.14062C3.07548 11.5364 1.82228 14.7599 1.47493 17.7694C1.36314 18.7381 1.43446 21.661 1.59134 22.5391C3.04673 30.6862 9.56775 36.7487 17.7734 37.5833C19.5577 37.7648 21.758 37.5852 23.7026 37.0992C26.0615 36.5098 28.5512 35.2819 30.5469 33.7236C31.5885 32.9102 32.9748 31.4613 33.9599 30.1562C35.4514 28.1804 36.6545 25.3687 37.1447 22.7139C37.4248 21.1965 37.4291 18.3363 37.1538 16.7495C36.1627 11.0392 32.4675 6.10867 27.2434 3.52578C24.3665 2.10336 21.0218 1.45102 17.9688 1.71687ZM18.125 2.63203C17.5599 2.67484 15.9483 2.96367 15.3125 3.13609C11.6539 4.12852 8.68673 5.99547 6.35907 8.76977C4.38978 11.1169 3.05861 14.0555 2.56353 17.1484C2.33939 18.5484 2.34243 20.6927 2.57056 22.2266C3.19212 26.4056 5.44064 30.2662 8.82196 32.96C11.3066 34.9395 14.4969 36.244 17.6504 36.57C18.8568 36.6947 21.0317 36.6208 22.1875 36.4158C26.0956 35.7226 29.7135 33.6893 32.212 30.782C35.2439 27.2542 36.6939 22.8896 36.3392 18.3594C36.227 16.9265 35.9994 15.8071 35.537 14.4141C34.6505 11.7432 33.3945 9.71648 31.3706 7.69117C29.9027 6.22219 28.6257 5.29937 26.8359 4.4143C24.1569 3.08937 20.8962 2.42227 18.125 2.63203ZM14.9247 7.82609C14.3517 8.17492 14.0871 8.61406 13.9396 9.46156C13.7828 10.3626 13.7705 10.3901 13.4652 10.5176C13.2125 10.6232 13.1655 10.6169 12.7209 10.4173L12.2463 10.2044L11.9631 10.3561C11.6084 10.5459 11.3743 10.9929 11.2423 11.7319C11.0748 12.6691 11.3587 14.0203 11.927 14.9899L12.128 15.333L12.343 14.9907C12.6731 14.4653 13.1105 14.0605 13.581 13.8451C14.3028 13.5146 15.5456 13.6084 16.9141 14.0967L17.4609 14.2918L17.5147 14.0014C17.5442 13.8416 17.602 13.4166 17.6432 13.0568C17.7318 12.2823 17.8918 12.0662 18.4885 11.915L18.8672 11.819L18.9671 11.3196C19.188 10.2164 19.1934 10.2578 18.738 9.57703C18.1438 8.68859 17.6571 8.18891 17.094 7.88867C16.6796 7.66781 16.5025 7.62148 15.9766 7.59625C15.3814 7.56773 15.3312 7.57867 14.9247 7.82609ZM22.3546 7.9757C21.7723 8.15336 21.0806 8.70492 20.5506 9.41406C20.0671 10.0611 19.7983 10.7927 19.6125 11.9675C19.5156 12.5802 19.3201 12.9676 19.1075 12.9683C18.9679 12.9688 18.9702 12.9827 19.1406 13.1641L19.3242 13.3594L19.1347 13.3605C18.9838 13.3616 18.9691 13.3771 19.0625 13.4375C19.2202 13.5394 19.7384 13.5357 19.9335 13.4312C20.0538 13.3669 20.122 13.3741 20.2213 13.4618C20.293 13.525 20.5028 13.6016 20.6876 13.6319C21.0124 13.6851 21.0375 13.6738 21.4356 13.2974C21.9386 12.8216 22.3508 12.6033 22.8779 12.5334C23.1859 12.4925 23.324 12.5101 23.4752 12.6091C23.6507 12.7241 23.6719 12.7906 23.6719 13.2275C23.6719 13.5534 23.6225 13.8138 23.5241 14.007L23.3763 14.2969H23.6828C24.262 14.2969 24.9048 14.6961 25.1168 15.1876L25.2145 15.4141L25.4847 14.9923C26.1446 13.9616 27.2935 13.1897 28.1927 13.1727L28.6552 13.1641L28.5364 12.9297C28.4711 12.8008 28.2351 12.4668 28.012 12.1875C27.2094 11.1824 27.2656 11.3146 27.2656 10.4334C27.2656 9.37344 27.1299 8.92953 26.6557 8.43914C26.0708 7.8343 25.4593 7.82281 24.7805 8.40383L24.4508 8.68602L24.1775 8.44602C24.0271 8.31406 23.7952 8.14969 23.662 8.08086C23.3579 7.92359 22.6992 7.87062 22.3546 7.9757ZM27.5184 14.1852C26.5525 14.6665 25.4452 16.1635 24.8845 17.746L24.6728 18.3436L25.0324 18.7849C25.2301 19.0277 25.4817 19.4037 25.5917 19.6206C25.8103 20.0521 26.0938 21.0672 26.0938 21.4188C26.0938 21.5408 26.1271 21.6406 26.1678 21.6406C26.2086 21.6406 26.4463 21.4705 26.6961 21.2627C28.0028 20.1752 28.8481 18.8076 29.0552 17.4459C29.23 16.2964 29.0995 14.4284 28.8208 14.0927C28.6675 13.908 27.976 13.9571 27.5184 14.1852ZM14.1559 14.5381C13.7392 14.6181 13.4304 14.8718 12.9389 15.5378C12.3092 16.3912 12.2367 16.6136 12.2365 17.6953C12.2359 20.1434 13.242 22.2406 14.9497 23.3516C15.5802 23.7617 16.9115 24.2048 17.7059 24.2687C18.2162 24.3098 18.394 24.363 18.7547 24.5829C19.3164 24.9252 19.9409 25.0298 21.0547 24.968C22.6606 24.8789 23.5171 24.5474 24.38 23.6809C25.5607 22.4952 25.6528 21.3728 24.7041 19.7312C23.997 18.5078 22.9676 17.9687 21.3385 17.9687H20.6535L20.5217 17.5506C20.3195 16.9088 19.8317 16.2088 19.4519 16.015C19.0238 15.7966 18.4693 15.7393 17.9617 15.8611C17.6198 15.9431 17.5407 15.9424 17.5123 15.8571C17.4559 15.6882 16.8756 15.0913 16.6052 14.9241C16.1081 14.617 14.8108 14.4125 14.1559 14.5381ZM8.11876 18.675C7.46212 18.782 6.79876 19.2426 6.51181 19.7909C6.17079 20.4423 6.92564 21.1422 8.5454 21.6763L9.31735 21.9309L8.7972 22.4614L8.27704 22.992L8.45493 23.2536C8.81892 23.789 9.62032 24.2244 11.1465 24.7159C12.1151 25.028 13.1701 25.2351 13.7798 25.233C14.3408 25.2311 15.1452 25.0473 15.4945 24.8413L15.7898 24.667L15.367 24.4952C13.7614 23.8427 12.4663 22.3109 11.8445 20.3291C11.7327 19.9729 11.6192 19.4933 11.5921 19.2631C11.5651 19.033 11.5209 18.8111 11.4942 18.77C11.4328 18.676 8.60165 18.5963 8.11876 18.675ZM28.7692 20.2148C28.3004 20.9758 27.002 22.1945 26.2527 22.5767C26.0358 22.6874 25.9021 22.8427 25.7342 23.1793C25.441 23.7667 24.497 24.712 23.8079 25.1084C23.2045 25.4554 23.202 25.4347 23.9081 25.978C25.1539 26.9366 26.6411 27.4759 27.4432 27.2598C28.0952 27.0843 28.6719 26.3976 28.6719 25.7969V25.5493L29.1232 25.5965C30.2718 25.7165 31.6986 25.1348 32.797 24.0988L33.4679 23.466L32.652 22.9048C31.6356 22.2056 31.5625 22.1487 31.5625 22.0566C31.5625 22.0155 31.751 21.9037 31.9814 21.8083C32.2118 21.7128 32.4842 21.5451 32.5869 21.4357L32.7734 21.2367L32.5784 21.0785C32.3087 20.8598 31.6201 20.5236 31.0231 20.3194C30.4724 20.1309 29.3324 19.8452 29.1278 19.8443C29.0563 19.844 28.8949 20.0107 28.7692 20.2148ZM7.61329 24.6302C7.16423 24.8118 6.86853 25.0937 6.4061 25.7815C6.06095 26.2948 5.96728 26.4892 6.03798 26.5457C6.09017 26.5873 6.5572 26.782 7.07595 26.9783C8.84329 27.647 10.5399 27.862 12.1403 27.6201L13.0469 27.483L13.5742 26.8503C13.8643 26.5023 14.1413 26.1633 14.1897 26.097C14.2676 25.9905 14.1768 25.9754 13.4084 25.9663C12.3306 25.9536 11.4736 25.7396 9.80532 25.0666C8.56993 24.5683 8.0315 24.4611 7.61329 24.6302ZM16.6384 25.1908C15.9964 25.4273 15.5432 25.7212 15.1604 26.149C14.422 26.9741 13.5903 28.1148 13.3364 28.6509C13.1156 29.117 13.0859 29.2584 13.0859 29.8437C13.0859 30.2807 13.1351 30.6548 13.2297 30.9375C13.3787 31.383 13.6982 31.875 13.8385 31.875C13.8829 31.875 14.1653 31.767 14.4663 31.6348C14.9893 31.4053 15.0181 31.401 15.1214 31.5372C15.1808 31.6155 15.2306 31.7053 15.2319 31.7367C15.2371 31.8573 15.8671 32.1091 16.1492 32.1034C17.3956 32.0784 18.601 30.5882 19.3992 28.0859C19.6198 27.3941 19.9036 25.8759 19.8231 25.8178C19.813 25.8105 19.5689 25.7466 19.2808 25.6757C18.9926 25.6048 18.578 25.4414 18.3594 25.3125C18.0199 25.1123 17.8854 25.0789 17.438 25.0836C17.1499 25.0866 16.79 25.1348 16.6384 25.1908ZM21.7969 25.7064C21.5606 25.7391 21.1775 25.7693 20.9457 25.7735L20.5242 25.7812L20.57 26.543C20.7538 29.597 23.0202 32.2569 25.4446 32.264C25.7536 32.2649 26.0234 32.2382 26.0441 32.2047C26.0822 32.143 25.7444 30.755 25.6569 30.6134C25.6279 30.5665 25.7109 30.5527 25.8713 30.5775C26.0151 30.5998 26.2996 30.6394 26.5034 30.6653C26.9454 30.7216 29.1448 30.725 29.2003 30.6695C29.2217 30.6481 29.0652 30.4273 28.8526 30.1786C28.64 29.93 28.1953 29.3838 27.8644 28.9648C27.5334 28.5459 27.2106 28.2031 27.147 28.2031C27.0834 28.2031 27.0145 28.1992 26.9938 28.1944C26.9733 28.1895 26.7184 28.1399 26.4274 28.0841C25.2974 27.8673 24.4834 27.4207 23.1096 26.2632C22.693 25.9122 22.3238 25.6299 22.2893 25.636C22.2549 25.642 22.0332 25.6737 21.7969 25.7064Z" fill="#161E1F"/>
</svg>
