<svg width="188" height="40" viewBox="0 0 188 40" fill="none" xmlns="http://www.w3.org/2000/svg">
<path fill-rule="evenodd" clip-rule="evenodd" d="M17.9687 1.71687C12.6785 2.1775 7.98701 4.8282 4.82959 9.14062C3.07545 11.5364 1.82225 14.7599 1.4749 17.7694C1.36311 18.7381 1.43443 21.661 1.59131 22.5391C3.0467 30.6862 9.56771 36.7487 17.7734 37.5833C19.5577 37.7648 21.7579 37.5852 23.7026 37.0992C26.0615 36.5098 28.5512 35.2819 30.5469 33.7236C31.5885 32.9102 32.9747 31.4613 33.9599 30.1562C35.4514 28.1804 36.6545 25.3687 37.1447 22.7139C37.4247 21.1965 37.4291 18.3363 37.1537 16.7495C36.1627 11.0392 32.4675 6.10867 27.2434 3.52578C24.3665 2.10336 21.0218 1.45102 17.9687 1.71687ZM18.125 2.63203C17.5599 2.67484 15.9483 2.96367 15.3125 3.13609C11.6539 4.12852 8.6867 5.99547 6.35904 8.76977C4.38975 11.1169 3.05857 14.0555 2.5635 17.1484C2.33936 18.5484 2.3424 20.6927 2.57053 22.2266C3.19209 26.4056 5.44061 30.2662 8.82193 32.96C11.3065 34.9395 14.4969 36.244 17.6504 36.57C18.8568 36.6947 21.0317 36.6208 22.1875 36.4158C26.0955 35.7226 29.7135 33.6893 32.212 30.782C35.2439 27.2542 36.6939 22.8896 36.3392 18.3594C36.2269 16.9265 35.9994 15.8071 35.537 14.4141C34.6504 11.7432 33.3944 9.71648 31.3706 7.69117C29.9027 6.22219 28.6257 5.29937 26.8359 4.4143C24.1569 3.08937 20.8962 2.42227 18.125 2.63203ZM14.9247 7.82609C14.3516 8.17492 14.0871 8.61406 13.9396 9.46156C13.7828 10.3626 13.7704 10.3901 13.4651 10.5176C13.2125 10.6232 13.1654 10.6169 12.7209 10.4173L12.2463 10.2044L11.963 10.3561C11.6084 10.5459 11.3743 10.9929 11.2422 11.7319C11.0747 12.6691 11.3587 14.0203 11.9269 14.9899L12.1279 15.333L12.3429 14.9907C12.673 14.4653 13.1104 14.0605 13.581 13.8451C14.3028 13.5146 15.5456 13.6084 16.914 14.0967L17.4609 14.2918L17.5147 14.0014C17.5442 13.8416 17.602 13.4166 17.6432 13.0568C17.7318 12.2823 17.8918 12.0662 18.4885 11.915L18.8672 11.819L18.9671 11.3196C19.1879 10.2164 19.1933 10.2578 18.7379 9.57703C18.1437 8.68859 17.6571 8.18891 17.094 7.88867C16.6796 7.66781 16.5025 7.62148 15.9765 7.59625C15.3814 7.56773 15.3312 7.57867 14.9247 7.82609ZM22.3546 7.9757C21.7722 8.15336 21.0805 8.70492 20.5506 9.41406C20.0671 10.0611 19.7983 10.7927 19.6125 11.9675C19.5156 12.5802 19.3201 12.9676 19.1075 12.9683C18.9679 12.9688 18.9702 12.9827 19.1406 13.1641L19.3241 13.3594L19.1347 13.3605C18.9837 13.3616 18.969 13.3771 19.0625 13.4375C19.2201 13.5394 19.7383 13.5357 19.9335 13.4312C20.0538 13.3669 20.1219 13.3741 20.2213 13.4618C20.2929 13.525 20.5028 13.6016 20.6876 13.6319C21.0123 13.6851 21.0375 13.6738 21.4355 13.2974C21.9386 12.8216 22.3508 12.6033 22.8779 12.5334C23.1858 12.4925 23.324 12.5101 23.4751 12.6091C23.6507 12.7241 23.6719 12.7906 23.6719 13.2275C23.6719 13.5534 23.6225 13.8138 23.524 14.007L23.3762 14.2969H23.6828C24.262 14.2969 24.9047 14.6961 25.1168 15.1876L25.2145 15.4141L25.4847 14.9923C26.1446 13.9616 27.2935 13.1897 28.1926 13.1727L28.6552 13.1641L28.5364 12.9297C28.4711 12.8008 28.2351 12.4668 28.012 12.1875C27.2094 11.1824 27.2656 11.3146 27.2656 10.4334C27.2656 9.37344 27.1298 8.92953 26.6557 8.43914C26.0708 7.8343 25.4593 7.82281 24.7804 8.40383L24.4508 8.68602L24.1775 8.44602C24.0271 8.31406 23.7951 8.14969 23.662 8.08086C23.3579 7.92359 22.6992 7.87062 22.3546 7.9757ZM27.5183 14.1852C26.5525 14.6665 25.4452 16.1635 24.8845 17.746L24.6728 18.3436L25.0323 18.7849C25.2301 19.0277 25.4817 19.4037 25.5916 19.6206C25.8103 20.0521 26.0937 21.0672 26.0937 21.4188C26.0937 21.5408 26.1271 21.6406 26.1678 21.6406C26.2086 21.6406 26.4462 21.4705 26.6961 21.2627C28.0028 20.1752 28.8481 18.8076 29.0551 17.4459C29.23 16.2964 29.0994 14.4284 28.8208 14.0927C28.6675 13.908 27.976 13.9571 27.5183 14.1852ZM14.1558 14.5381C13.7392 14.6181 13.4304 14.8718 12.9389 15.5378C12.3091 16.3912 12.2367 16.6136 12.2365 17.6953C12.2359 20.1434 13.2419 22.2406 14.9497 23.3516C15.5801 23.7617 16.9115 24.2048 17.7059 24.2687C18.2162 24.3098 18.394 24.363 18.7547 24.5829C19.3164 24.9252 19.9409 25.0298 21.0547 24.968C22.6606 24.8789 23.5171 24.5474 24.38 23.6809C25.5607 22.4952 25.6528 21.3728 24.704 19.7312C23.997 18.5078 22.9676 17.9687 21.3385 17.9687H20.6535L20.5217 17.5506C20.3194 16.9088 19.8317 16.2088 19.4519 16.015C19.0237 15.7966 18.4693 15.7393 17.9617 15.8611C17.6197 15.9431 17.5407 15.9424 17.5122 15.8571C17.4559 15.6882 16.8756 15.0913 16.6052 14.9241C16.1081 14.617 14.8108 14.4125 14.1558 14.5381ZM8.11873 18.675C7.46209 18.782 6.79873 19.2426 6.51178 19.7909C6.17076 20.4423 6.92561 21.1422 8.54537 21.6763L9.31732 21.9309L8.79717 22.4614L8.27701 22.992L8.4549 23.2536C8.81889 23.789 9.62029 24.2244 11.1465 24.7159C12.1151 25.028 13.1701 25.2351 13.7797 25.233C14.3408 25.2311 15.1452 25.0473 15.4944 24.8413L15.7897 24.667L15.3669 24.4952C13.7614 23.8427 12.4663 22.3109 11.8444 20.3291C11.7327 19.9729 11.6191 19.4933 11.5921 19.2631C11.5651 19.033 11.5209 18.8111 11.4941 18.77C11.4328 18.676 8.60162 18.5963 8.11873 18.675ZM28.7691 20.2148C28.3004 20.9758 27.0019 22.1945 26.2527 22.5767C26.0358 22.6874 25.9021 22.8427 25.7341 23.1793C25.441 23.7667 24.497 24.712 23.8079 25.1084C23.2044 25.4554 23.202 25.4347 23.9081 25.978C25.1539 26.9366 26.6411 27.4759 27.4432 27.2598C28.0951 27.0843 28.6719 26.3976 28.6719 25.7969V25.5493L29.1232 25.5965C30.2718 25.7165 31.6986 25.1348 32.797 24.0988L33.4679 23.466L32.6519 22.9048C31.6356 22.2056 31.5625 22.1487 31.5625 22.0566C31.5625 22.0155 31.751 21.9037 31.9814 21.8083C32.2118 21.7128 32.4842 21.5451 32.5869 21.4357L32.7734 21.2367L32.5783 21.0785C32.3087 20.8598 31.6201 20.5236 31.0231 20.3194C30.4724 20.1309 29.3324 19.8452 29.1278 19.8443C29.0562 19.844 28.8949 20.0107 28.7691 20.2148ZM7.61326 24.6302C7.1642 24.8118 6.8685 25.0937 6.40607 25.7815C6.06092 26.2948 5.96725 26.4892 6.03795 26.5457C6.09014 26.5873 6.55717 26.782 7.07592 26.9783C8.84326 27.647 10.5399 27.862 12.1403 27.6201L13.0469 27.483L13.5742 26.8503C13.8643 26.5023 14.1412 26.1633 14.1897 26.097C14.2676 25.9905 14.1768 25.9754 13.4084 25.9663C12.3305 25.9536 11.4736 25.7396 9.80529 25.0666C8.5699 24.5683 8.03146 24.4611 7.61326 24.6302ZM16.6383 25.1908C15.9964 25.4273 15.5432 25.7212 15.1604 26.149C14.4219 26.9741 13.5903 28.1148 13.3364 28.6509C13.1156 29.117 13.0859 29.2584 13.0859 29.8437C13.0859 30.2807 13.1351 30.6548 13.2297 30.9375C13.3787 31.383 13.6982 31.875 13.8385 31.875C13.8829 31.875 14.1653 31.767 14.4662 31.6348C14.9893 31.4053 15.0181 31.401 15.1214 31.5372C15.1808 31.6155 15.2305 31.7053 15.2319 31.7367C15.2371 31.8573 15.8671 32.1091 16.1492 32.1034C17.3955 32.0784 18.601 30.5882 19.3991 28.0859C19.6197 27.3941 19.9036 25.8759 19.8231 25.8178C19.8129 25.8105 19.5689 25.7466 19.2808 25.6757C18.9926 25.6048 18.5779 25.4414 18.3594 25.3125C18.0199 25.1123 17.8854 25.0789 17.4379 25.0836C17.1498 25.0866 16.79 25.1348 16.6383 25.1908ZM21.7969 25.7064C21.5605 25.7391 21.1775 25.7693 20.9457 25.7735L20.5241 25.7812L20.57 26.543C20.7537 29.597 23.0201 32.2569 25.4446 32.264C25.7536 32.2649 26.0233 32.2382 26.044 32.2047C26.0822 32.143 25.7444 30.755 25.6569 30.6134C25.6279 30.5665 25.7108 30.5527 25.8712 30.5775C26.0151 30.5998 26.2996 30.6394 26.5034 30.6653C26.9454 30.7216 29.1447 30.725 29.2003 30.6695C29.2216 30.6481 29.0651 30.4273 28.8526 30.1786C28.64 29.93 28.1953 29.3838 27.8644 28.9648C27.5334 28.5459 27.2106 28.2031 27.1469 28.2031C27.0833 28.2031 27.0144 28.1992 26.9938 28.1944C26.9733 28.1895 26.7184 28.1399 26.4274 28.0841C25.2973 27.8673 24.4834 27.4207 23.1096 26.2632C22.6929 25.9122 22.3238 25.6299 22.2893 25.636C22.2548 25.642 22.0332 25.6737 21.7969 25.7064Z" fill="black"/>
<path d="M63.36 15.2C63.36 16.3333 62.96 17.3133 62.16 18.14C61.36 18.9533 60.1933 19.54 58.66 19.9C59.4867 20.1267 60.1133 20.5 60.54 21.02C60.9667 21.5267 61.18 22.1133 61.18 22.78C61.18 23.8333 60.8467 24.7467 60.18 25.52C59.5267 26.2933 58.5667 26.8933 57.3 27.32C56.0333 27.7333 54.5067 27.94 52.72 27.94C52.0533 27.94 51.52 27.92 51.12 27.88C51.1067 28.2533 50.9467 28.5333 50.64 28.72C50.3333 28.9067 49.94 29 49.46 29C48.98 29 48.6467 28.8933 48.46 28.68C48.2867 28.4667 48.2133 28.1533 48.24 27.74C48.36 25.8733 48.5933 23.92 48.94 21.88C49.2867 19.8267 49.7267 17.8467 50.26 15.94C50.3533 15.6067 50.54 15.3733 50.82 15.24C51.1 15.1067 51.4667 15.04 51.92 15.04C52.7333 15.04 53.14 15.2667 53.14 15.72C53.14 15.9067 53.1 16.12 53.02 16.36C52.6733 17.4 52.3267 18.8133 51.98 20.6C51.6333 22.3733 51.3867 24.0667 51.24 25.68C51.88 25.7333 52.4 25.76 52.8 25.76C54.6667 25.76 56.0333 25.4933 56.9 24.96C57.78 24.4133 58.22 23.72 58.22 22.88C58.22 22.2933 57.9667 21.8 57.46 21.4C56.9667 21 56.1333 20.78 54.96 20.74C54.6933 20.7267 54.5067 20.66 54.4 20.54C54.2933 20.42 54.24 20.2267 54.24 19.96C54.24 19.5733 54.32 19.26 54.48 19.02C54.64 18.78 54.9333 18.6533 55.36 18.64C56.3067 18.6133 57.16 18.4733 57.92 18.22C58.6933 17.9667 59.3 17.6133 59.74 17.16C60.18 16.6933 60.4 16.1533 60.4 15.54C60.4 14.7667 60.02 14.16 59.26 13.72C58.5 13.2667 57.3333 13.04 55.76 13.04C54.3333 13.04 52.9533 13.2267 51.62 13.6C50.2867 13.96 49.1533 14.42 48.22 14.98C47.7933 15.2333 47.4333 15.36 47.14 15.36C46.9 15.36 46.7133 15.28 46.58 15.12C46.46 14.9467 46.4 14.7333 46.4 14.48C46.4 14.1467 46.4667 13.86 46.6 13.62C46.7467 13.38 47.0867 13.1067 47.62 12.8C48.74 12.16 50.0533 11.66 51.56 11.3C53.0667 10.94 54.6067 10.76 56.18 10.76C58.5933 10.76 60.3933 11.1667 61.58 11.98C62.7667 12.7933 63.36 13.8667 63.36 15.2ZM71.083 23.54C71.2563 23.54 71.3896 23.62 71.483 23.78C71.5896 23.94 71.643 24.16 71.643 24.44C71.643 24.9733 71.5163 25.3867 71.263 25.68C70.6896 26.3867 70.063 26.9667 69.383 27.42C68.7163 27.8733 67.9563 28.1 67.103 28.1C65.9296 28.1 65.0563 27.5667 64.483 26.5C63.923 25.4333 63.643 24.0533 63.643 22.36C63.643 20.7333 63.8496 18.88 64.263 16.8C64.6896 14.72 65.3096 12.9333 66.123 11.44C66.9496 9.94667 67.9296 9.2 69.063 9.2C69.703 9.2 70.203 9.5 70.563 10.1C70.9363 10.6867 71.123 11.5333 71.123 12.64C71.123 14.2267 70.683 16.0667 69.803 18.16C68.923 20.2533 67.7296 22.3267 66.223 24.38C66.3163 24.9267 66.4696 25.32 66.683 25.56C66.8963 25.7867 67.1763 25.9 67.523 25.9C68.0696 25.9 68.5496 25.7467 68.963 25.44C69.3763 25.12 69.903 24.58 70.543 23.82C70.703 23.6333 70.883 23.54 71.083 23.54ZM68.623 11.18C68.3163 11.18 67.9696 11.7333 67.583 12.84C67.1963 13.9467 66.8563 15.32 66.563 16.96C66.2696 18.6 66.1096 20.1733 66.083 21.68C67.0296 20.12 67.783 18.56 68.343 17C68.903 15.4267 69.183 13.9933 69.183 12.7C69.183 11.6867 68.9963 11.18 68.623 11.18ZM73.4064 28.1C72.6197 28.1 71.9464 27.9067 71.3864 27.52C70.8397 27.12 70.4264 26.6 70.1464 25.96C69.8664 25.32 69.7264 24.6333 69.7264 23.9C69.7264 22.8867 69.9131 21.9867 70.2864 21.2C70.6731 20.4 71.1931 19.78 71.8464 19.34C72.4997 18.8867 73.2331 18.66 74.0464 18.66C74.8331 18.66 75.5064 18.86 76.0664 19.26C76.6264 19.6467 77.0464 20.16 77.3264 20.8C77.6064 21.44 77.7464 22.1267 77.7464 22.86C77.7464 23.8733 77.5531 24.78 77.1664 25.58C76.7797 26.3667 76.2531 26.9867 75.5864 27.44C74.9331 27.88 74.2064 28.1 73.4064 28.1ZM73.6264 25.94C74.0797 25.94 74.4597 25.6933 74.7664 25.2C75.0864 24.7067 75.2464 23.9867 75.2464 23.04C75.2464 22.3067 75.1131 21.7533 74.8464 21.38C74.5797 21.0067 74.2597 20.82 73.8864 20.82C73.4064 20.82 73.0064 21.0667 72.6864 21.56C72.3797 22.04 72.2264 22.76 72.2264 23.72C72.2264 24.48 72.3597 25.04 72.6264 25.4C72.8931 25.76 73.2264 25.94 73.6264 25.94ZM82.7113 28.54C82.0179 28.54 81.4846 28.38 81.1113 28.06C80.7513 27.74 80.5713 27.38 80.5713 26.98C80.5713 26.6333 80.6979 26.3333 80.9513 26.08C81.2046 25.8267 81.5779 25.7 82.0713 25.7C82.2446 25.7 82.4446 25.72 82.6713 25.76C82.9113 25.7867 83.0913 25.8067 83.2113 25.82C83.1979 25.4733 83.1179 25.1467 82.9713 24.84C82.8379 24.5333 82.6646 24.24 82.4513 23.96C82.2379 23.6667 82.0379 23.4133 81.8513 23.2C81.4379 23.9867 81.0246 24.64 80.6113 25.16C80.2113 25.68 79.7713 26.1733 79.2913 26.64C79.0513 26.88 78.7979 27 78.5313 27C78.3179 27 78.1446 26.9267 78.0112 26.78C77.8779 26.62 77.8112 26.4267 77.8112 26.2C77.8112 25.9333 77.9046 25.6867 78.0913 25.46L78.3513 25.14C79.0846 24.2333 79.6379 23.4867 80.0113 22.9C80.2379 22.5133 80.5046 22 80.8113 21.36C81.1179 20.7067 81.4179 20.0333 81.7113 19.34C81.9646 18.7533 82.4913 18.46 83.2913 18.46C83.6646 18.46 83.9246 18.4933 84.0713 18.56C84.2179 18.6267 84.2913 18.7333 84.2913 18.88C84.2913 18.96 84.2646 19.0867 84.2113 19.26C84.1579 19.4333 84.0846 19.6067 83.9913 19.78C83.7513 20.26 83.6313 20.6667 83.6313 21C83.6313 21.2 83.6979 21.42 83.8313 21.66C83.9779 21.9 84.1979 22.2 84.4913 22.56C84.9179 23.12 85.2379 23.6 85.4513 24C85.6779 24.3867 85.7913 24.8133 85.7913 25.28C85.7913 25.4133 85.7779 25.6 85.7513 25.84C86.4046 25.5867 87.1713 24.9133 88.0513 23.82C88.2113 23.6333 88.3913 23.54 88.5912 23.54C88.7646 23.54 88.8979 23.62 88.9913 23.78C89.0979 23.94 89.1513 24.16 89.1513 24.44C89.1513 24.9467 89.0246 25.36 88.7713 25.68C88.1046 26.5067 87.4646 27.0733 86.8513 27.38C86.2513 27.6733 85.5046 27.8333 84.6113 27.86C84.0779 28.3133 83.4446 28.54 82.7113 28.54ZM91.2464 28.54C90.5531 28.54 90.0197 28.38 89.6464 28.06C89.2864 27.74 89.1064 27.38 89.1064 26.98C89.1064 26.6333 89.2331 26.3333 89.4864 26.08C89.7397 25.8267 90.1131 25.7 90.6064 25.7C90.7797 25.7 90.9797 25.72 91.2064 25.76C91.4464 25.7867 91.6264 25.8067 91.7464 25.82C91.7331 25.4733 91.6531 25.1467 91.5064 24.84C91.3731 24.5333 91.1997 24.24 90.9864 23.96C90.7731 23.6667 90.5731 23.4133 90.3864 23.2C89.9731 23.9867 89.5597 24.64 89.1464 25.16C88.7464 25.68 88.3064 26.1733 87.8264 26.64C87.5864 26.88 87.3331 27 87.0664 27C86.8531 27 86.6797 26.9267 86.5464 26.78C86.4131 26.62 86.3464 26.4267 86.3464 26.2C86.3464 25.9333 86.4397 25.6867 86.6264 25.46L86.8864 25.14C87.6197 24.2333 88.1731 23.4867 88.5464 22.9C88.7731 22.5133 89.0397 22 89.3464 21.36C89.6531 20.7067 89.9531 20.0333 90.2464 19.34C90.4997 18.7533 91.0264 18.46 91.8264 18.46C92.1997 18.46 92.4597 18.4933 92.6064 18.56C92.7531 18.6267 92.8264 18.7333 92.8264 18.88C92.8264 18.96 92.7997 19.0867 92.7464 19.26C92.6931 19.4333 92.6197 19.6067 92.5264 19.78C92.2864 20.26 92.1664 20.6667 92.1664 21C92.1664 21.2 92.2331 21.42 92.3664 21.66C92.5131 21.9 92.7331 22.2 93.0264 22.56C93.4531 23.12 93.7731 23.6 93.9864 24C94.2131 24.3867 94.3264 24.8133 94.3264 25.28C94.3264 25.4133 94.3131 25.6 94.2864 25.84C94.9397 25.5867 95.7064 24.9133 96.5864 23.82C96.7464 23.6333 96.9264 23.54 97.1264 23.54C97.2997 23.54 97.4331 23.62 97.5264 23.78C97.6331 23.94 97.6864 24.16 97.6864 24.44C97.6864 24.9467 97.5597 25.36 97.3064 25.68C96.6397 26.5067 95.9997 27.0733 95.3864 27.38C94.7864 27.6733 94.0397 27.8333 93.1464 27.86C92.6131 28.3133 91.9797 28.54 91.2464 28.54ZM106.262 21.86C106.435 21.86 106.568 21.9467 106.662 22.12C106.755 22.2933 106.802 22.5133 106.802 22.78C106.802 23.42 106.608 23.8 106.222 23.92C105.422 24.2 104.542 24.36 103.582 24.4C103.328 25.52 102.828 26.42 102.082 27.1C101.335 27.7667 100.488 28.1 99.5416 28.1C98.7416 28.1 98.0549 27.9067 97.4816 27.52C96.9216 27.1333 96.4949 26.62 96.2016 25.98C95.9082 25.34 95.7616 24.6467 95.7616 23.9C95.7616 22.8867 95.9549 21.9867 96.3416 21.2C96.7282 20.4 97.2616 19.78 97.9416 19.34C98.6216 18.8867 99.3749 18.66 100.202 18.66C101.215 18.66 102.028 19.0133 102.642 19.72C103.268 20.4133 103.635 21.2733 103.742 22.3C104.368 22.26 105.115 22.1267 105.982 21.9C106.088 21.8733 106.182 21.86 106.262 21.86ZM99.7016 25.98C100.128 25.98 100.495 25.8067 100.802 25.46C101.122 25.1133 101.335 24.6133 101.442 23.96C101.028 23.68 100.708 23.3133 100.482 22.86C100.268 22.4067 100.162 21.9267 100.162 21.42C100.162 21.2067 100.182 20.9933 100.222 20.78H100.122C99.5882 20.78 99.1416 21.04 98.7816 21.56C98.4349 22.0667 98.2616 22.7867 98.2616 23.72C98.2616 24.4533 98.4016 25.0133 98.6816 25.4C98.9749 25.7867 99.3149 25.98 99.7016 25.98ZM106.505 28.1C105.998 28.1 105.638 27.8333 105.425 27.3C105.225 26.7667 105.125 25.9133 105.125 24.74C105.125 23.0067 105.372 21.36 105.865 19.8C105.985 19.4133 106.178 19.1333 106.445 18.96C106.725 18.7733 107.112 18.68 107.605 18.68C107.872 18.68 108.058 18.7133 108.165 18.78C108.272 18.8467 108.325 18.9733 108.325 19.16C108.325 19.3733 108.225 19.8533 108.025 20.6C107.892 21.1333 107.785 21.6 107.705 22C107.625 22.3867 107.558 22.8733 107.505 23.46C107.865 22.42 108.292 21.54 108.785 20.82C109.292 20.1 109.805 19.5667 110.325 19.22C110.858 18.86 111.358 18.68 111.825 18.68C112.292 18.68 112.618 18.7867 112.805 19C113.005 19.2133 113.105 19.54 113.105 19.98C113.105 20.4067 112.978 21.18 112.725 22.3C112.618 22.78 112.545 23.14 112.505 23.38C112.945 22.26 113.432 21.3467 113.965 20.64C114.512 19.9333 115.045 19.4333 115.565 19.14C116.085 18.8333 116.565 18.68 117.005 18.68C117.432 18.68 117.752 18.7933 117.965 19.02C118.192 19.2333 118.305 19.5533 118.305 19.98C118.305 20.3267 118.232 20.98 118.085 21.94C117.952 22.7533 117.845 23.5267 117.765 24.26C117.685 24.98 117.645 25.7867 117.645 26.68C117.645 27.1867 117.538 27.5533 117.325 27.78C117.125 27.9933 116.792 28.1 116.325 28.1C115.885 28.1 115.565 27.9867 115.365 27.76C115.165 27.5333 115.065 27.1933 115.065 26.74C115.065 26.2067 115.158 25.3267 115.345 24.1C115.505 23.0333 115.585 22.3533 115.585 22.06C115.585 21.8467 115.512 21.74 115.365 21.74C115.192 21.74 114.945 21.9667 114.625 22.42C114.305 22.86 113.985 23.4467 113.665 24.18C113.345 24.9133 113.085 25.6867 112.885 26.5C112.738 27.14 112.565 27.5667 112.365 27.78C112.178 27.9933 111.872 28.1 111.445 28.1C111.005 28.1 110.672 27.8933 110.445 27.48C110.232 27.0533 110.125 26.54 110.125 25.94C110.125 25.4333 110.192 24.7 110.325 23.74C110.432 22.8867 110.485 22.3267 110.485 22.06C110.485 21.8467 110.412 21.74 110.265 21.74C110.065 21.74 109.812 21.98 109.505 22.46C109.198 22.94 108.898 23.5533 108.605 24.3C108.325 25.0467 108.098 25.78 107.925 26.5C107.778 27.1267 107.605 27.5533 107.405 27.78C107.218 27.9933 106.918 28.1 106.505 28.1ZM143.546 23.54C143.72 23.54 143.853 23.62 143.946 23.78C144.053 23.94 144.106 24.16 144.106 24.44C144.106 24.96 143.98 25.3733 143.726 25.68C142.406 27.2933 141 28.1 139.506 28.1C138.213 28.1 137.18 27.6 136.406 26.6C135.633 25.6 135.246 24.1667 135.246 22.3C135.246 21.8467 135.266 21.3933 135.306 20.94C134.426 21.1 133.466 21.22 132.426 21.3C131.733 21.3533 131.26 21.3867 131.006 21.4C130.74 22.76 130.366 24.4267 129.886 26.4C129.606 27.56 129.073 28.14 128.286 28.14C127.433 28.14 127.006 27.7533 127.006 26.98C127.006 26.8067 127.04 26.5667 127.106 26.26C127.56 24.4333 127.92 22.8867 128.186 21.62L127.226 21.66C126.786 21.66 126.466 21.5867 126.266 21.44C126.066 21.28 125.966 21.0267 125.966 20.68C125.966 20.24 126.093 19.92 126.346 19.72C126.6 19.5067 127.02 19.3867 127.606 19.36L128.666 19.32C129.013 17.44 129.186 16.0067 129.186 15.02C129.186 14.3933 129.093 13.9667 128.906 13.74C128.72 13.5133 128.473 13.4 128.166 13.4C127.233 13.4 126.18 14.18 125.006 15.74C124.833 15.9667 124.64 16.08 124.426 16.08C124.24 16.08 124.08 15.9933 123.946 15.82C123.813 15.6467 123.746 15.4267 123.746 15.16C123.746 14.7467 123.913 14.3067 124.246 13.84C124.833 13.0267 125.573 12.36 126.466 11.84C127.36 11.3067 128.266 11.04 129.186 11.04C130.053 11.04 130.72 11.34 131.186 11.94C131.666 12.5267 131.906 13.4467 131.906 14.7C131.906 15.8067 131.746 17.3067 131.426 19.2L133.386 19.1C134.226 19.06 134.946 18.9933 135.546 18.9C135.786 17.4333 136.153 16.06 136.646 14.78C137.14 13.5 137.753 12.46 138.486 11.66C139.22 10.86 140.04 10.46 140.946 10.46C141.613 10.46 142.14 10.7267 142.526 11.26C142.913 11.78 143.106 12.4667 143.106 13.32C143.106 16.6267 141.42 18.92 138.046 20.2C138.006 20.7333 137.986 21.2867 137.986 21.86C137.986 23.26 138.16 24.2533 138.506 24.84C138.853 25.4267 139.34 25.72 139.966 25.72C140.513 25.72 141.013 25.58 141.466 25.3C141.92 25.0067 142.433 24.5133 143.006 23.82C143.166 23.6333 143.346 23.54 143.546 23.54ZM140.846 12.2C140.553 12.2 140.24 12.4667 139.906 13C139.586 13.5333 139.28 14.26 138.986 15.18C138.693 16.1 138.46 17.1067 138.286 18.2C139.353 17.76 140.14 17.1333 140.646 16.32C141.153 15.5067 141.406 14.46 141.406 13.18C141.406 12.8733 141.353 12.6333 141.246 12.46C141.14 12.2867 141.006 12.2 140.846 12.2ZM154.005 23.54C154.178 23.54 154.312 23.62 154.405 23.78C154.512 23.94 154.565 24.16 154.565 24.44C154.565 24.9733 154.438 25.3867 154.185 25.68C153.692 26.28 152.992 26.8333 152.085 27.34C151.192 27.8467 150.232 28.1 149.205 28.1C147.805 28.1 146.718 27.72 145.945 26.96C145.172 26.2 144.785 25.16 144.785 23.84C144.785 22.92 144.978 22.0667 145.365 21.28C145.752 20.48 146.285 19.8467 146.965 19.38C147.658 18.9133 148.438 18.68 149.305 18.68C150.078 18.68 150.698 18.9133 151.165 19.38C151.632 19.8333 151.865 20.4533 151.865 21.24C151.865 22.16 151.532 22.9533 150.865 23.62C150.212 24.2733 149.098 24.7933 147.525 25.18C147.858 25.7933 148.492 26.1 149.425 26.1C150.025 26.1 150.705 25.8933 151.465 25.48C152.238 25.0533 152.905 24.5 153.465 23.82C153.625 23.6333 153.805 23.54 154.005 23.54ZM148.965 20.64C148.472 20.64 148.052 20.9267 147.705 21.5C147.372 22.0733 147.205 22.7667 147.205 23.58V23.62C147.992 23.4333 148.612 23.1533 149.065 22.78C149.518 22.4067 149.745 21.9733 149.745 21.48C149.745 21.2267 149.672 21.0267 149.525 20.88C149.392 20.72 149.205 20.64 148.965 20.64ZM155.299 28.1C154.472 28.1 153.812 27.8 153.319 27.2C152.826 26.6 152.579 25.8133 152.579 24.84C152.579 23.7733 152.826 22.7667 153.319 21.82C153.812 20.86 154.466 20.0933 155.279 19.52C156.106 18.9333 156.979 18.64 157.899 18.64C158.192 18.64 158.386 18.7 158.479 18.82C158.586 18.9267 158.672 19.1267 158.739 19.42C159.019 19.3667 159.312 19.34 159.619 19.34C160.272 19.34 160.599 19.5733 160.599 20.04C160.599 20.32 160.499 20.9867 160.299 22.04C159.992 23.5733 159.839 24.64 159.839 25.24C159.839 25.44 159.886 25.6 159.979 25.72C160.086 25.84 160.219 25.9 160.379 25.9C160.632 25.9 160.939 25.74 161.299 25.42C161.659 25.0867 162.146 24.5533 162.759 23.82C162.919 23.6333 163.099 23.54 163.299 23.54C163.472 23.54 163.606 23.62 163.699 23.78C163.806 23.94 163.859 24.16 163.859 24.44C163.859 24.9733 163.732 25.3867 163.479 25.68C162.932 26.36 162.352 26.9333 161.739 27.4C161.126 27.8667 160.532 28.1 159.959 28.1C159.519 28.1 159.112 27.9533 158.739 27.66C158.379 27.3533 158.106 26.94 157.919 26.42C157.226 27.54 156.352 28.1 155.299 28.1ZM156.019 26.08C156.312 26.08 156.592 25.9067 156.859 25.56C157.126 25.2133 157.319 24.7533 157.439 24.18L158.179 20.5C157.619 20.5133 157.099 20.7267 156.619 21.14C156.152 21.54 155.779 22.0733 155.499 22.74C155.219 23.4067 155.079 24.1133 155.079 24.86C155.079 25.2733 155.159 25.58 155.319 25.78C155.492 25.98 155.726 26.08 156.019 26.08ZM172.329 21.92C172.369 21.9067 172.435 21.9 172.529 21.9C172.729 21.9 172.882 21.9667 172.989 22.1C173.095 22.2333 173.149 22.4133 173.149 22.64C173.149 23.0533 173.069 23.38 172.909 23.62C172.749 23.8467 172.509 24.0133 172.189 24.12C171.575 24.32 170.922 24.42 170.229 24.42C169.642 24.42 169.089 24.34 168.569 24.18C168.182 24.8067 167.755 25.4533 167.289 26.12C166.755 26.88 166.295 27.4 165.909 27.68C165.522 27.96 165.082 28.1 164.589 28.1C164.042 28.1 163.609 27.8867 163.289 27.46C162.982 27.0333 162.789 26.36 162.709 25.44C162.549 23.5733 162.469 21.94 162.469 20.54V19.84C162.482 19.4 162.602 19.0933 162.829 18.92C163.055 18.7467 163.395 18.66 163.849 18.66C164.195 18.66 164.449 18.74 164.609 18.9C164.782 19.0467 164.869 19.3 164.869 19.66C164.869 21.1933 164.962 23.1867 165.149 25.64C165.949 24.4533 166.549 23.5067 166.949 22.8C166.749 22.4133 166.649 21.9533 166.649 21.42C166.649 20.9667 166.749 20.5267 166.949 20.1C167.149 19.6733 167.422 19.3267 167.769 19.06C168.115 18.7933 168.509 18.66 168.949 18.66C169.335 18.66 169.649 18.8 169.889 19.08C170.129 19.3467 170.249 19.74 170.249 20.26C170.249 20.86 170.089 21.5467 169.769 22.32C170.275 22.2933 170.949 22.1933 171.789 22.02L172.329 21.92ZM180.333 23.54C180.506 23.54 180.64 23.62 180.733 23.78C180.84 23.94 180.893 24.16 180.893 24.44C180.893 24.9733 180.766 25.3867 180.513 25.68C180.02 26.28 179.32 26.8333 178.413 27.34C177.52 27.8467 176.56 28.1 175.533 28.1C174.133 28.1 173.046 27.72 172.273 26.96C171.5 26.2 171.113 25.16 171.113 23.84C171.113 22.92 171.306 22.0667 171.693 21.28C172.08 20.48 172.613 19.8467 173.293 19.38C173.986 18.9133 174.766 18.68 175.633 18.68C176.406 18.68 177.026 18.9133 177.493 19.38C177.96 19.8333 178.193 20.4533 178.193 21.24C178.193 22.16 177.86 22.9533 177.193 23.62C176.54 24.2733 175.426 24.7933 173.853 25.18C174.186 25.7933 174.82 26.1 175.753 26.1C176.353 26.1 177.033 25.8933 177.793 25.48C178.566 25.0533 179.233 24.5 179.793 23.82C179.953 23.6333 180.133 23.54 180.333 23.54ZM175.293 20.64C174.8 20.64 174.38 20.9267 174.033 21.5C173.7 22.0733 173.533 22.7667 173.533 23.58V23.62C174.32 23.4333 174.94 23.1533 175.393 22.78C175.846 22.4067 176.073 21.9733 176.073 21.48C176.073 21.2267 176 21.0267 175.853 20.88C175.72 20.72 175.533 20.64 175.293 20.64ZM180.685 28.1C180.178 28.1 179.818 27.8333 179.605 27.3C179.405 26.7667 179.305 25.9133 179.305 24.74C179.305 23.0067 179.551 21.36 180.045 19.8C180.165 19.4133 180.358 19.1333 180.625 18.96C180.905 18.7733 181.291 18.68 181.785 18.68C182.051 18.68 182.238 18.7133 182.345 18.78C182.451 18.8467 182.505 18.9733 182.505 19.16C182.505 19.3733 182.405 19.8533 182.205 20.6C182.071 21.1333 181.965 21.6 181.885 22C181.805 22.4 181.738 22.8933 181.685 23.48C182.125 22.3333 182.618 21.4 183.165 20.68C183.711 19.96 184.245 19.4467 184.765 19.14C185.298 18.8333 185.785 18.68 186.225 18.68C186.651 18.68 186.971 18.7933 187.185 19.02C187.411 19.2333 187.525 19.5533 187.525 19.98C187.525 20.3267 187.451 20.98 187.305 21.94C187.171 22.7533 187.065 23.5267 186.985 24.26C186.905 24.98 186.865 25.7867 186.865 26.68C186.865 27.1867 186.758 27.5533 186.545 27.78C186.345 27.9933 186.011 28.1 185.545 28.1C185.105 28.1 184.785 27.9867 184.585 27.76C184.385 27.5333 184.285 27.1933 184.285 26.74C184.285 26.2067 184.378 25.3267 184.565 24.1C184.725 23.0333 184.805 22.3533 184.805 22.06C184.805 21.8467 184.731 21.74 184.585 21.74C184.411 21.74 184.165 21.9667 183.845 22.42C183.538 22.86 183.218 23.4467 182.885 24.18C182.565 24.9133 182.305 25.6867 182.105 26.5C181.958 27.1267 181.785 27.5533 181.585 27.78C181.398 27.9933 181.098 28.1 180.685 28.1Z" fill="black"/>
</svg>
